<svg width="253" height="250" viewBox="0 0 253 250" fill="none" xmlns="http://www.w3.org/2000/svg">
<path d="M157.612 3L157.293 3.09765L157.291 3.09863C157.291 3.09863 157.287 3.10034 157.283 3.10156C157.274 3.10413 157.261 3.10792 157.244 3.11328C157.208 3.12404 157.155 3.1407 157.084 3.1621C156.943 3.20497 156.731 3.26856 156.457 3.3496C155.907 3.51176 155.104 3.74438 154.099 4.02343C152.089 4.58183 149.274 5.32461 146.064 6.06347C139.596 7.55244 131.703 8.97979 125.542 8.91699C119.707 8.85745 112.244 7.42879 106.133 5.97167C103.1 5.24864 100.443 4.52884 98.5444 3.99023C97.5954 3.72111 96.8375 3.49754 96.3185 3.34179C96.0595 3.26395 95.8595 3.20321 95.7265 3.1621C95.6595 3.14158 95.6085 3.12555 95.5755 3.11523C95.5595 3.11009 95.5465 3.10695 95.5385 3.10449C95.5345 3.10325 95.5314 3.1021 95.5294 3.10156L95.5284 3.10058L95.2065 3H94.8685C87.2745 3 81.6455 10.0526 83.3295 17.458C86.2195 30.1618 88.4744 40.075 90.7294 49.9883C92.5774 58.113 94.4264 66.2374 96.6234 75.8984L50.1844 35.207C44.5234 30.2471 35.7655 31.7742 32.0905 38.2734L31.9185 38.5859L31.7995 38.8135L31.7345 39.0615V39.0625L31.7334 39.0635C31.7334 39.0635 31.7324 39.0684 31.7314 39.0722C31.7294 39.0798 31.7274 39.0917 31.7234 39.1074C31.7144 39.1393 31.7015 39.1881 31.6855 39.2519C31.6515 39.3797 31.6004 39.57 31.5334 39.8164C31.4004 40.3092 31.2055 41.027 30.9525 41.9209C30.4475 43.7103 29.7184 46.2025 28.8244 49.0088C27.0254 54.6562 24.5985 61.4482 22.0215 66.3701C19.3885 71.3969 15.0815 77.3722 11.3685 82.1543C9.52345 84.5306 7.84645 86.5857 6.63145 88.0459C6.02445 88.7755 5.53344 89.3561 5.19444 89.7529C5.02544 89.9513 4.89446 90.1038 4.80646 90.206C4.76246 90.2571 4.72845 90.2958 4.70645 90.3213C4.69545 90.3339 4.68745 90.3435 4.68245 90.3496C4.67945 90.3524 4.67645 90.3554 4.67645 90.3554L4.67545 90.3574L4.50745 90.5498L4.38844 90.7763C0.945443 97.3029 4.25045 105.354 11.2854 107.58L67.4034 125.331L11.2325 143.302C4.22945 145.542 0.943443 153.561 4.36044 160.072L4.48145 160.303L4.65344 160.499L4.65445 160.501C4.65645 160.502 4.65845 160.505 4.66045 160.508C4.66545 160.514 4.67545 160.523 4.68645 160.536C4.70845 160.561 4.74145 160.6 4.78545 160.65C4.87445 160.752 5.00445 160.905 5.17445 161.102C5.51345 161.498 6.00646 162.077 6.61446 162.805C7.83246 164.261 9.51345 166.311 11.3615 168.682C15.0815 173.453 19.3935 179.416 22.0215 184.437C24.6245 189.413 27.0494 196.288 28.8414 202.009C29.7314 204.851 30.4544 207.375 30.9554 209.188C31.2054 210.094 31.4004 210.822 31.5314 211.321C31.5974 211.571 31.6465 211.763 31.6805 211.892C31.6965 211.957 31.7095 212.007 31.7175 212.039C31.7215 212.055 31.7254 212.066 31.7274 212.074C31.7284 212.078 31.7284 212.081 31.7294 212.083V212.085L31.7935 212.339L31.9144 212.57C35.4724 219.349 44.4334 221.015 50.1904 215.971L96.3564 175.518L82.7794 233.023C81.0254 240.453 86.6614 247.576 94.2964 247.576H94.4924L94.6864 247.541H94.6884C94.6904 247.541 94.6934 247.54 94.6974 247.539C94.7064 247.537 94.7205 247.535 94.7375 247.532C94.7735 247.526 94.8275 247.516 94.8985 247.504C95.0415 247.479 95.2525 247.441 95.5255 247.394C96.0745 247.3 96.8734 247.166 97.8714 247.004C99.8684 246.68 102.661 246.247 105.84 245.815C112.226 244.948 120.067 244.096 126.15 244.096C132.234 244.096 140.075 244.948 146.461 245.815C149.64 246.247 152.433 246.68 154.43 247.004C155.428 247.166 156.228 247.3 156.776 247.394C157.05 247.441 157.261 247.479 157.403 247.504C157.474 247.516 157.528 247.526 157.564 247.532C157.582 247.535 157.595 247.537 157.604 247.539C157.608 247.54 157.612 247.541 157.614 247.541H157.616L157.809 247.576H158.005C165.623 247.576 171.257 240.482 169.532 233.062L156.127 175.424L202.415 215.983C208.158 221.016 217.094 219.371 220.669 212.624L220.842 212.296L220.9 211.931V211.929C220.9 211.927 220.9 211.924 220.901 211.921C220.902 211.913 220.904 211.902 220.907 211.887C220.912 211.856 220.919 211.808 220.929 211.746C220.949 211.621 220.979 211.435 221.02 211.193C221.101 210.71 221.224 210.005 221.386 209.127C221.711 207.37 222.194 204.924 222.829 202.176C224.108 196.63 225.962 190.029 228.293 185.322C230.959 179.94 235.847 173.81 240.18 168.937C242.328 166.522 244.303 164.454 245.742 162.991C246.461 162.26 247.045 161.681 247.447 161.286C247.648 161.089 247.803 160.937 247.908 160.836C247.96 160.785 248 160.747 248.026 160.723C248.039 160.71 248.048 160.701 248.054 160.695C248.057 160.692 248.06 160.691 248.061 160.689L248.062 160.687L248.322 160.44L248.489 160.125C251.95 153.593 248.642 145.522 241.592 143.299L184.49 125.29L240.707 107.571C247.721 105.36 251.041 97.3531 247.649 90.8271L247.473 90.4892L247.194 90.2295L247.187 90.2226C247.181 90.2173 247.172 90.2086 247.16 90.1972C247.135 90.1745 247.098 90.1397 247.049 90.0937C246.951 90.0014 246.805 89.8631 246.617 89.6826C246.239 89.321 245.69 88.7898 245.013 88.1181C243.658 86.7739 241.793 84.8698 239.754 82.6357C235.643 78.1296 230.959 72.4202 228.27 67.2959C225.555 62.1229 223.626 55.1213 222.374 49.2881C221.752 46.396 221.307 43.8372 221.017 42.0029C220.872 41.0865 220.766 40.3521 220.697 39.8496C220.662 39.5984 220.636 39.4045 220.62 39.2754C220.611 39.211 220.605 39.1625 220.601 39.1308C220.599 39.1151 220.598 39.103 220.597 39.0957C220.597 39.0926 220.596 39.0888 220.596 39.0888V39.0869L220.547 38.6904L220.364 38.3359C216.839 31.5547 207.905 29.8437 202.124 34.8427L155.249 75.3769L169.436 17.6582C171.269 10.201 165.624 3 157.945 3H157.612ZM158.141 13.3359C159.018 13.4486 159.628 14.3069 159.411 15.1933L141.92 86.3486C140.544 91.9477 147.173 96.0066 151.534 92.2353L208.876 42.6523C209.551 42.0687 210.561 42.2035 211.073 42.8935C211.098 43.021 211.129 43.1777 211.166 43.3613C211.279 43.9134 211.445 44.7111 211.664 45.7011C212.099 47.6805 131.579 96.9762 132.406 100.076C134.048 106.23 105.323 99.8872 108.36 105.576C111.296 111.075 143.125 122.65 146.909 127C148.814 129.189 235.605 92.7486 236.856 94.0566C237.482 94.711 237.99 95.2294 238.342 95.5859C238.435 95.6795 238.518 95.7612 238.588 95.832C238.835 96.6099 238.412 97.4695 237.603 97.7246L168.052 119.646C162.536 121.385 162.535 129.191 168.051 130.931L238.487 153.144C239.316 153.406 239.739 154.302 239.453 155.094C239.36 155.197 239.24 155.329 239.097 155.489C238.721 155.909 238.181 156.518 237.515 157.283C236.184 158.812 148.92 112.076 146.909 114.576C142.915 119.541 128.446 94.4042 125.542 100.076C122.886 105.265 134.051 133.986 132.406 139.576C131.578 142.39 212.523 203.626 212.064 205.42C211.834 206.317 211.656 207.04 211.535 207.54C211.493 207.71 211.459 207.856 211.431 207.973C210.92 208.676 209.896 208.812 209.218 208.219L152.629 158.633C148.306 154.845 141.666 158.824 142.968 164.423L159.476 235.4C159.681 236.282 159.07 237.127 158.2 237.238C158.057 237.205 157.866 237.163 157.631 237.11C157.069 236.984 163.387 226.215 162.372 226C160.341 225.569 147.591 149.65 144.36 149.076C137.933 147.933 135.8 114.576 129.36 114.576C122.921 114.576 128.383 119.97 121.957 121.113C118.726 121.687 117.402 147.069 115.372 147.5C114.356 147.715 95.2325 236.984 94.6705 237.11C94.4365 237.163 94.2455 237.205 94.1035 237.238C93.2305 237.127 92.6195 236.279 92.8275 235.395L109.568 164.486C110.891 158.882 115.691 131.781 111.36 135.576L43.3875 208.206C42.6985 208.809 41.6505 208.659 41.1485 207.925C41.1105 207.793 41.0585 207.614 40.9935 207.393C40.8435 206.88 100.192 156.454 99.9124 155.532C99.3514 153.686 38.9764 200.8 37.9984 197.903C36.0524 192.14 162.297 112.927 159.476 107.571C156.687 102.276 23.4215 168.11 19.8185 163.294C18.0085 160.873 98.2504 128.492 97.0634 127C96.4694 126.254 14.1055 155.942 13.7715 155.532C13.6305 155.358 13.5154 155.216 13.4294 155.111C13.1224 154.315 13.5424 153.402 14.3784 153.135L83.7464 130.942C89.2404 129.185 89.2275 121.407 83.7285 119.667L14.3985 97.7363C13.5715 97.4743 13.1494 96.5806 13.4344 95.79C13.5204 95.6941 13.6305 95.5727 13.7605 95.4277C14.1195 95.0273 14.6355 94.4453 15.2715 93.7158C16.5445 92.2571 94.3915 137.959 96.3185 135.576C100.145 130.843 124.54 160.922 127.372 155.532C130.178 150.194 117.638 108.77 119.36 102.993C120.227 100.085 42.9085 41.6723 43.3875 39.8164C43.6275 38.8882 40.9254 44.2027 41.0524 43.6855C41.0974 43.5002 41.1355 43.3446 41.1655 43.2207C41.6765 42.5148 42.7024 42.3783 43.3804 42.9726L100.033 92.6142C104.345 96.3926 110.973 92.443 109.701 86.8525L93.3965 15.1679C93.1975 14.2887 93.8054 13.4489 94.6714 13.3369C94.8064 13.3684 94.9824 13.4097 95.1974 13.459C95.7364 13.5823 85.9464 18.8672 87.8604 13.3359C89.8064 13.7576 100.756 95.2657 103.86 95.832C110.032 96.9581 121.122 163.416 127.372 163.465C133.976 163.518 136.437 104.227 142.968 103.076C146.253 102.497 161.301 13.7731 163.36 13.3359C164.39 13.1173 156.99 13.5971 157.56 13.4687C157.8 13.4146 157.996 13.3694 158.141 13.3359Z" fill="#3A5BC7" stroke="#3A5BC7" stroke-width="4.40678"/>
</svg>
