<svg width="253" height="250" viewBox="0 0 253 250" fill="none" xmlns="http://www.w3.org/2000/svg">
<path d="M95.3101 2.79688L95.6284 2.89453V2.89551H95.6304C95.6322 2.89608 95.6352 2.89722 95.6392 2.89844C95.6475 2.90101 95.6607 2.9048 95.6782 2.91016C95.7134 2.92092 95.7666 2.93758 95.8374 2.95898C95.9791 3.00185 96.1906 3.06544 96.4653 3.14648C97.0151 3.30864 97.818 3.54126 98.8228 3.82031C100.833 4.37871 103.647 5.12149 106.857 5.86035C113.325 7.34932 121.219 8.77667 127.379 8.71387C133.214 8.65433 140.677 7.22567 146.789 5.76855C149.821 5.04552 152.479 4.32572 154.377 3.78711C155.326 3.51799 156.084 3.29442 156.603 3.13867C156.862 3.06083 157.062 3.00009 157.196 2.95898C157.263 2.93846 157.313 2.92243 157.346 2.91211C157.363 2.90697 157.375 2.90383 157.383 2.90137C157.387 2.90013 157.39 2.89898 157.392 2.89844L157.393 2.89746L157.715 2.79688H158.053C165.648 2.79688 171.277 9.84945 169.592 17.2549C166.703 29.9587 164.448 39.8719 162.193 49.7852C160.345 57.9099 158.496 66.0343 156.298 75.6953L202.738 35.0039C208.398 30.044 217.157 31.5711 220.832 38.0703L221.003 38.3828L221.123 38.6104L221.187 38.8584V38.8594L221.188 38.8604C221.188 38.8621 221.189 38.8653 221.19 38.8691C221.192 38.8767 221.195 38.8886 221.199 38.9043C221.207 38.9362 221.22 38.985 221.237 39.0488C221.271 39.1766 221.322 39.3669 221.388 39.6133C221.521 40.1061 221.717 40.8239 221.969 41.7178C222.474 43.5072 223.203 45.9994 224.097 48.8057C225.896 54.4531 228.323 61.2451 230.901 66.167C233.533 71.1938 237.841 77.1691 241.553 81.9512C243.398 84.3275 245.075 86.3826 246.291 87.8428C246.898 88.5724 247.389 89.153 247.727 89.5498C247.896 89.7482 248.028 89.9007 248.116 90.0029C248.16 90.054 248.193 90.0927 248.215 90.1182C248.226 90.1308 248.234 90.1404 248.24 90.1465C248.242 90.1493 248.244 90.151 248.246 90.1523L248.247 90.1543L248.415 90.3467L248.534 90.5732C251.976 97.0998 248.672 105.151 241.636 107.377L185.518 125.128L241.689 143.099C248.693 145.339 251.978 153.358 248.561 159.869L248.44 160.1L248.268 160.296L248.267 160.298C248.266 160.299 248.264 160.302 248.261 160.305C248.256 160.311 248.247 160.32 248.236 160.333C248.214 160.358 248.18 160.397 248.136 160.447C248.048 160.549 247.917 160.702 247.748 160.899C247.408 161.295 246.916 161.874 246.307 162.602C245.089 164.058 243.408 166.108 241.56 168.479C237.84 173.25 233.528 179.213 230.901 184.234C228.298 189.21 225.872 196.085 224.081 201.806C223.19 204.648 222.467 207.172 221.966 208.985C221.716 209.891 221.522 210.619 221.39 211.118C221.325 211.368 221.275 211.56 221.242 211.689C221.225 211.754 221.213 211.804 221.205 211.836C221.201 211.852 221.197 211.863 221.195 211.871C221.194 211.875 221.193 211.878 221.193 211.88V211.882L221.128 212.136L221.007 212.367C217.449 219.146 208.489 220.812 202.731 215.768L156.565 175.315L170.142 232.82C171.896 240.25 166.26 247.373 158.625 247.373H158.429L158.236 247.338C158.235 247.338 158.234 247.338 158.233 247.338C158.231 247.338 158.228 247.337 158.224 247.336C158.215 247.334 158.202 247.332 158.184 247.329C158.148 247.323 158.094 247.313 158.023 247.301C157.881 247.276 157.67 247.238 157.396 247.191C156.848 247.097 156.049 246.963 155.05 246.801C153.053 246.477 150.26 246.044 147.082 245.612C140.695 244.745 132.854 243.893 126.771 243.893C120.688 243.893 112.847 244.745 106.46 245.612C103.282 246.044 100.489 246.477 98.4917 246.801C97.4934 246.963 96.6941 247.097 96.146 247.191C95.8723 247.238 95.6612 247.276 95.519 247.301C95.448 247.313 95.3936 247.323 95.3579 247.329C95.3401 247.332 95.3266 247.334 95.3179 247.336C95.3136 247.337 95.3101 247.338 95.3081 247.338H95.3062L95.1128 247.373H94.9165C87.2985 247.373 81.6648 240.279 83.3901 232.859L96.7944 175.221L50.5073 215.78C44.7639 220.813 35.828 219.168 32.2524 212.421L32.0796 212.093L32.022 211.728V211.726C32.0217 211.724 32.0216 211.721 32.021 211.718C32.0199 211.71 32.0176 211.699 32.0151 211.684C32.0102 211.653 32.0028 211.605 31.9927 211.543C31.9725 211.418 31.9426 211.232 31.9019 210.99C31.8203 210.507 31.6979 209.802 31.5356 208.924C31.2109 207.167 30.7275 204.721 30.0933 201.973C28.8136 196.427 26.9596 189.826 24.6284 185.119C21.9628 179.737 17.0745 173.607 12.7417 168.734C10.5943 166.319 8.61867 164.251 7.18018 162.788C6.46135 162.057 5.87732 161.478 5.4751 161.083C5.27403 160.886 5.11871 160.734 5.01416 160.633C4.96194 160.582 4.92195 160.544 4.896 160.52C4.88317 160.507 4.87377 160.498 4.86768 160.492C4.86471 160.489 4.86218 160.488 4.86084 160.486L4.85986 160.484L4.6001 160.237L4.43311 159.922C0.971886 153.39 4.27987 145.319 11.3296 143.096L68.4321 125.087L12.2153 107.368C5.20058 105.157 1.88066 97.15 5.27295 90.624L5.44873 90.2861L5.72803 90.0264L5.73486 90.0195C5.74055 90.0142 5.75008 90.0055 5.76221 89.9941C5.78646 89.9714 5.8238 89.9366 5.87256 89.8906C5.9705 89.7983 6.11662 89.66 6.30518 89.4795C6.6829 89.1179 7.23166 88.5867 7.90869 87.915C9.26379 86.5708 11.1291 84.6667 13.1675 82.4326C17.2787 77.9265 21.9624 72.2171 24.6519 67.0928C27.3667 61.9198 29.2955 54.9182 30.5483 49.085C31.1695 46.1929 31.6146 43.6341 31.9048 41.7998C32.0497 40.8834 32.1558 40.149 32.2251 39.6465C32.2598 39.3953 32.2856 39.2014 32.3022 39.0723C32.3106 39.0079 32.3168 38.9594 32.3208 38.9277C32.3228 38.912 32.3238 38.8999 32.3247 38.8926C32.3251 38.8895 32.3255 38.8872 32.3257 38.8857V38.8838L32.3745 38.4873L32.5581 38.1328C36.0833 31.3516 45.0171 29.6406 50.7983 34.6396L97.6733 75.1738L83.4858 17.4551C81.6528 9.99792 87.2978 2.79688 94.9771 2.79688H95.3101ZM94.7808 13.1328C93.9038 13.2455 93.2933 14.1038 93.5112 14.9902L111.001 86.1455C112.378 91.7446 105.749 95.8035 101.387 92.0322L44.0454 42.4492C43.3705 41.8656 42.3605 42.0004 41.8491 42.6904C41.8238 42.8179 41.7928 42.9746 41.7554 43.1582C41.6429 43.7103 41.4763 44.508 41.2583 45.498C40.8224 47.4774 40.1801 50.2311 39.353 53.3311C37.711 59.4854 35.2967 67.1782 32.2593 72.8672C29.3233 78.3661 24.7313 84.1521 20.9468 88.502C19.042 90.6913 17.3164 92.5455 16.0659 93.8535C15.4403 94.5079 14.9323 95.0263 14.5796 95.3828C14.487 95.4764 14.4041 95.5581 14.3335 95.6289C14.0869 96.4068 14.5095 97.2664 15.3188 97.5215L84.8696 119.443C90.3861 121.182 90.3868 128.988 84.8706 130.728L14.4351 152.941C13.6054 153.203 13.183 154.099 13.4692 154.891C13.5622 154.994 13.6816 155.126 13.8247 155.286C14.2004 155.706 14.741 156.315 15.4067 157.08C16.7379 158.609 18.5717 160.762 20.5825 163.262C24.577 168.227 29.3734 174.681 32.2769 180.353C34.9334 185.542 37.2583 192.522 38.9038 198.112C39.7321 200.926 40.3984 203.423 40.8579 205.217C41.0877 206.114 41.2659 206.837 41.3872 207.337C41.4286 207.507 41.4629 207.653 41.4907 207.77C42.002 208.473 43.0263 208.609 43.7036 208.016L100.292 158.43C104.616 154.642 111.255 158.621 109.954 164.22L93.4458 235.197C93.2406 236.079 93.8515 236.924 94.7222 237.035C94.8651 237.002 95.056 236.96 95.2905 236.907C95.8526 236.781 96.6677 236.601 97.6831 236.386C99.7132 235.955 102.55 235.38 105.782 234.806C112.208 233.663 120.331 232.495 126.771 232.495C133.211 232.495 141.334 233.663 147.76 234.806C150.992 235.38 153.829 235.955 155.859 236.386C156.874 236.601 157.689 236.781 158.251 236.907C158.486 236.96 158.676 237.002 158.819 237.035C159.692 236.924 160.303 236.076 160.094 235.192L143.353 164.283C142.03 158.679 148.679 154.679 153.009 158.474L209.535 208.003C210.224 208.606 211.271 208.456 211.773 207.722C211.811 207.59 211.864 207.411 211.928 207.19C212.078 206.677 212.298 205.934 212.579 205.012C213.14 203.166 213.945 200.597 214.923 197.7C216.869 191.937 219.537 184.757 222.358 179.401C225.147 174.106 229.501 167.907 233.103 163.091C234.914 160.67 236.553 158.573 237.741 157.081C238.335 156.335 238.816 155.739 239.15 155.329C239.292 155.155 239.407 155.013 239.493 154.908C239.799 154.112 239.379 153.199 238.543 152.932L169.175 130.739C163.681 128.982 163.694 121.204 169.194 119.464L238.523 97.5332C239.351 97.2712 239.772 96.3775 239.488 95.5869C239.401 95.491 239.292 95.3696 239.162 95.2246C238.803 94.8242 238.286 94.2422 237.65 93.5127C236.378 92.054 234.623 90.0006 232.697 87.6182C228.869 82.8853 224.262 76.7361 221.429 71.3467C218.624 66.0089 216.185 58.7994 214.463 53.0225C213.597 50.1144 212.901 47.5317 212.421 45.6758C212.182 44.7476 211.996 43.9996 211.87 43.4824C211.824 43.2971 211.786 43.1415 211.756 43.0176C211.246 42.3117 210.22 42.1752 209.542 42.7695L152.888 92.4111C148.576 96.1895 141.949 92.2399 143.22 86.6494L159.525 14.9648C159.725 14.0856 159.117 13.2458 158.25 13.1338C158.116 13.1653 157.939 13.2066 157.724 13.2559C157.186 13.3792 156.405 13.5548 155.432 13.7656C153.486 14.1873 150.765 14.7511 147.661 15.3174C141.488 16.4435 133.669 17.6076 127.419 17.6572C120.815 17.7096 112.544 16.5444 106.012 15.3936C102.728 14.8148 99.8473 14.2331 97.7876 13.7959C96.7576 13.5773 95.9318 13.394 95.3618 13.2656C95.1214 13.2115 94.9263 13.1663 94.7808 13.1328Z" fill="white" stroke="white" stroke-width="4.40678"/>
</svg>
