<svg width="300" height="300" viewBox="0 0 300 300" fill="none" xmlns="http://www.w3.org/2000/svg">
<rect width="300" height="300" rx="75" fill="white"/>
<path d="M119.056 27.7969L119.374 27.8945V27.8955H119.376C119.378 27.8961 119.381 27.8972 119.385 27.8984C119.393 27.901 119.406 27.9048 119.424 27.9102C119.459 27.9209 119.512 27.9376 119.583 27.959C119.725 28.0018 119.936 28.0654 120.211 28.1465C120.761 28.3086 121.564 28.5413 122.568 28.8203C124.579 29.3787 127.393 30.1215 130.603 30.8604C137.071 32.3493 144.964 33.7767 151.125 33.7139C156.96 33.6543 164.423 32.2257 170.534 30.7686C173.567 30.0455 176.224 29.3257 178.123 28.7871C179.072 28.518 179.83 28.2944 180.349 28.1387C180.608 28.0608 180.808 28.0001 180.941 27.959C181.008 27.9385 181.059 27.9224 181.092 27.9121C181.108 27.907 181.121 27.9038 181.129 27.9014C181.133 27.9001 181.136 27.899 181.138 27.8984L181.139 27.8975L181.461 27.7969H181.799C189.393 27.7969 195.022 34.8494 193.338 42.2549C188.08 65.3706 184.923 79.2466 180.044 100.695L226.483 60.0039C232.144 55.044 240.902 56.5711 244.577 63.0703L244.749 63.3828L244.868 63.6104L244.933 63.8584V63.8594L244.934 63.8604C244.934 63.8621 244.935 63.8653 244.936 63.8691C244.938 63.8767 244.94 63.8886 244.944 63.9043C244.953 63.9362 244.966 63.985 244.982 64.0488C245.016 64.1766 245.067 64.3669 245.134 64.6133C245.267 65.1061 245.462 65.8239 245.715 66.7178C246.22 68.5072 246.949 70.9994 247.843 73.8057C249.642 79.4531 252.069 86.2451 254.646 91.167C257.279 96.1938 261.586 102.169 265.299 106.951C267.144 109.327 268.821 111.383 270.036 112.843C270.643 113.572 271.134 114.153 271.473 114.55C271.642 114.748 271.773 114.901 271.861 115.003C271.905 115.054 271.939 115.093 271.961 115.118C271.972 115.131 271.98 115.14 271.985 115.146C271.988 115.149 271.99 115.151 271.991 115.152L271.992 115.154L272.16 115.347L272.279 115.573C275.722 122.1 272.417 130.151 265.382 132.377L209.264 150.128L265.435 168.099C272.438 170.339 275.724 178.358 272.307 184.869L272.186 185.1L272.014 185.296L272.013 185.298C272.011 185.299 272.009 185.302 272.007 185.305C272.002 185.311 271.992 185.32 271.981 185.333C271.959 185.358 271.926 185.397 271.882 185.447C271.793 185.549 271.663 185.702 271.493 185.899C271.154 186.295 270.661 186.874 270.053 187.602C268.835 189.058 267.154 191.108 265.306 193.479C261.586 198.25 257.274 204.213 254.646 209.234C252.043 214.21 249.618 221.085 247.826 226.806C246.936 229.648 246.213 232.172 245.712 233.985C245.462 234.891 245.267 235.619 245.136 236.118C245.07 236.368 245.021 236.56 244.987 236.689C244.971 236.754 244.958 236.804 244.95 236.836C244.946 236.852 244.942 236.863 244.94 236.871C244.939 236.875 244.939 236.878 244.938 236.88V236.882H244.938L244.874 237.136L244.753 237.367C241.195 244.146 232.234 245.812 226.477 240.768L180.311 200.315L193.888 257.82C195.642 265.25 190.006 272.373 182.371 272.373H182.175L181.981 272.338C181.981 272.338 181.98 272.338 181.979 272.338C181.977 272.338 181.974 272.337 181.97 272.336C181.961 272.334 181.947 272.332 181.93 272.329C181.894 272.323 181.84 272.313 181.769 272.301C181.626 272.276 181.415 272.238 181.142 272.191C180.593 272.097 179.794 271.963 178.796 271.801C176.799 271.477 174.006 271.044 170.827 270.612C164.441 269.745 156.6 268.893 150.517 268.893C144.433 268.893 136.592 269.745 130.206 270.612C127.027 271.044 124.235 271.477 122.237 271.801C121.239 271.963 120.44 272.097 119.892 272.191C119.618 272.238 119.407 272.276 119.265 272.301C119.194 272.313 119.139 272.323 119.104 272.329C119.086 272.332 119.072 272.334 119.063 272.336C119.059 272.337 119.056 272.338 119.054 272.338H119.052L118.858 272.373H118.662C111.044 272.373 105.41 265.279 107.136 257.859L120.54 200.221L74.2529 240.78C68.5095 245.813 59.5736 244.168 55.998 237.421L55.8252 237.093L55.7676 236.728V236.726C55.7673 236.724 55.7672 236.721 55.7666 236.718C55.7655 236.71 55.7632 236.699 55.7607 236.684C55.7559 236.653 55.7484 236.605 55.7383 236.543C55.7181 236.418 55.6882 236.232 55.6475 235.99C55.566 235.507 55.4435 234.802 55.2812 233.924C54.9565 232.167 54.4731 229.721 53.8389 226.973C52.5592 221.427 50.7052 214.826 48.374 210.119C45.7084 204.737 40.8201 198.607 36.4873 193.734C34.3399 191.319 32.3643 189.251 30.9258 187.788C30.207 187.057 29.6229 186.478 29.2207 186.083C29.0196 185.886 28.8643 185.734 28.7598 185.633C28.7075 185.582 28.6676 185.544 28.6416 185.52C28.6288 185.507 28.6194 185.498 28.6133 185.492C28.6103 185.489 28.6078 185.488 28.6064 185.486L28.6055 185.484L28.3457 185.237L28.1787 184.922C24.7174 178.39 28.0253 170.318 35.0752 168.095L92.1777 150.087L35.9609 132.368C28.9462 130.157 25.6263 122.15 29.0186 115.624L29.1943 115.286L29.4736 115.026L29.4805 115.02C29.4862 115.014 29.4957 115.005 29.5078 114.994C29.5321 114.971 29.5694 114.937 29.6182 114.891C29.7161 114.798 29.8622 114.66 30.0508 114.479C30.4285 114.118 30.9773 113.587 31.6543 112.915C33.0094 111.571 34.8747 109.667 36.9131 107.433C41.0244 102.927 45.7081 97.2171 48.3975 92.0928C51.1123 86.9198 53.0411 79.9182 54.2939 74.085C54.9151 71.1929 55.3602 68.6341 55.6504 66.7998C55.7953 65.8834 55.9014 65.149 55.9707 64.6465C56.0054 64.3953 56.0312 64.2014 56.0479 64.0723C56.0562 64.0079 56.0624 63.9594 56.0664 63.9277C56.0684 63.912 56.0694 63.8999 56.0703 63.8926C56.0707 63.8895 56.0711 63.8872 56.0713 63.8857V63.8838L56.1201 63.4873L56.3037 63.1328C59.8289 56.3516 68.7627 54.6406 74.5439 59.6396L121.419 100.174L107.231 42.4551C105.398 34.9979 111.043 27.7969 118.723 27.7969H119.056ZM118.526 38.1328C117.649 38.2455 117.039 39.1038 117.257 39.9902L134.747 111.146C136.123 116.745 129.494 120.804 125.133 117.032L67.791 67.4492C67.1161 66.8656 66.1061 67.0004 65.5947 67.6904C65.5694 67.8179 65.5384 67.9746 65.501 68.1582C65.3885 68.7103 65.222 69.508 65.0039 70.498C64.568 72.4774 63.9257 75.2311 63.0986 78.3311C61.4566 84.4854 59.0423 92.1782 56.0049 97.8672C53.0689 103.366 48.4769 109.152 44.6924 113.502C42.7876 115.691 41.062 117.545 39.8115 118.854C39.1859 119.508 38.6779 120.026 38.3252 120.383C38.2326 120.476 38.1497 120.558 38.0791 120.629C37.8325 121.407 38.2551 122.266 39.0645 122.521L108.615 144.443C114.132 146.182 114.132 153.988 108.616 155.728L38.1807 177.941C37.351 178.203 36.9286 179.099 37.2148 179.891C37.3078 179.994 37.4272 180.126 37.5703 180.286C37.946 180.706 38.4866 181.315 39.1523 182.08C40.4835 183.609 42.3173 185.762 44.3281 188.262C48.3226 193.227 53.119 199.681 56.0225 205.353C58.679 210.542 61.0039 217.522 62.6494 223.112C63.4777 225.926 64.144 228.423 64.6035 230.217C64.8333 231.114 65.0116 231.837 65.1328 232.337C65.1742 232.507 65.2085 232.653 65.2363 232.77C65.7476 233.473 66.7719 233.609 67.4492 233.016L124.038 183.43C128.361 179.642 135.001 183.621 133.699 189.22L117.191 260.197C116.986 261.079 117.597 261.924 118.468 262.035C118.611 262.002 118.802 261.96 119.036 261.907C119.598 261.781 120.413 261.601 121.429 261.386C123.459 260.955 126.296 260.38 129.527 259.806C135.954 258.663 144.077 257.495 150.517 257.495C156.956 257.495 165.08 258.663 171.506 259.806C174.737 260.38 177.574 260.955 179.604 261.386C180.62 261.601 181.435 261.781 181.997 261.907C182.231 261.96 182.422 262.002 182.564 262.035C183.437 261.924 184.048 261.076 183.84 260.192L167.099 189.283C165.776 183.679 172.424 179.679 176.755 183.474L233.28 233.003C233.969 233.606 235.017 233.456 235.519 232.722C235.557 232.59 235.609 232.411 235.674 232.19C235.824 231.677 236.044 230.934 236.324 230.012C236.885 228.166 237.691 225.597 238.669 222.7C240.615 216.937 243.283 209.757 246.104 204.401C248.893 199.106 253.246 192.907 256.849 188.091C258.659 185.67 260.299 183.573 261.486 182.081C262.08 181.335 262.562 180.739 262.896 180.329C263.037 180.155 263.152 180.013 263.238 179.908C263.545 179.112 263.125 178.199 262.289 177.932L192.921 155.739C187.427 153.982 187.44 146.204 192.939 144.464L262.269 122.533C263.096 122.271 263.518 121.377 263.233 120.587C263.147 120.491 263.037 120.37 262.907 120.225C262.548 119.824 262.032 119.242 261.396 118.513C260.123 117.054 258.369 115.001 256.442 112.618C252.615 107.885 248.007 101.736 245.175 96.3467C242.369 91.0089 239.931 83.7994 238.209 78.0225C237.342 75.1144 236.646 72.5317 236.167 70.6758C235.927 69.7476 235.742 68.9996 235.615 68.4824C235.57 68.2971 235.532 68.1415 235.502 68.0176C234.991 67.3117 233.965 67.1752 233.287 67.7695L176.634 117.411C172.322 121.189 165.694 117.24 166.966 111.649L183.271 39.9648C183.47 39.0856 182.862 38.2458 181.996 38.1338C181.861 38.1653 181.685 38.2066 181.47 38.2559C180.931 38.3792 180.151 38.5548 179.178 38.7656C177.232 39.1873 174.51 39.7511 171.406 40.3174C165.234 41.4435 157.415 42.6076 151.165 42.6572C144.561 42.7096 136.289 41.5444 129.758 40.3936C126.473 39.8148 123.593 39.2331 121.533 38.7959C120.503 38.5773 119.677 38.394 119.107 38.2656C118.867 38.2115 118.672 38.1663 118.526 38.1328Z" fill="#3A5BC7" stroke="#3A5BC7" stroke-width="4.40678"/>
</svg>
